<?xml version="1.0" encoding="UTF-8"?>
<svg id="Livello_1" xmlns="http://www.w3.org/2000/svg" version="1.1" viewBox="0 0 16.8706 16.8706">
  <!-- Generator: Adobe Illustrator 30.0.0, SVG Export Plug-In . SVG Version: 2.1.1 Build 123)  -->
  <path d="M.4104,10.2223h.5845v-3.3164l-.5845-.1118v-.3779l1.521-.3008v.7988h.043c.0342-.0972.0859-.1943.1543-.292.0688-.0972.1548-.1831.2578-.2578.103-.0742.2236-.1343.3608-.1802.1377-.0459.2949-.0688.4727-.0688.3838,0,.686.0703.9067.2104.2202.1406.3735.3564.4595.6484h.0259c.0454-.103.1074-.2061.1846-.3091s.1704-.1963.2793-.2793.2349-.1489.3779-.1978c.1431-.0483.3096-.0728.4985-.0728.5327,0,.9106.1387,1.1338.4165.2236.2778.3354.6948.3354,1.2505v2.4399h.584v.4639h-2.0962v-.4639h.5498v-2.3887c0-.3721-.0703-.6445-.2104-.8164-.1406-.1714-.3564-.2573-.6489-.2573-.1147,0-.2261.0156-.335.0469-.1089.0317-.2061.0806-.292.1465s-.1548.1489-.2065.249c-.0513.1001-.0771.2188-.0771.3564v2.6636h.5498v.4639h-2.062v-.4639h.5498v-2.3887c0-.3721-.0698-.6445-.2104-.8164-.1401-.1714-.3564-.2573-.6484-.2573-.1147,0-.2266.0156-.3354.0469-.1089.0317-.2061.0806-.292.1465s-.1548.1489-.2061.249c-.0518.1001-.0771.2188-.0771.3564v2.6636h.5498v.4639H.4104v-.4639Z"/>
  <path d="M8.6414,10.2223h.5845v-3.3164l-.5845-.1118v-.3779l1.52-.3008v.7988h.043c.041-.103.0918-.2017.1504-.2964.0605-.0942.1348-.1787.2246-.2534.0879-.0742.1914-.1343.3086-.1802s.25-.0688.4004-.0688c.2637,0,.4727.0659.6309.1978s.2363.3208.2363.5669c0,.1948-.0508.3481-.1504.4595-.0996.1118-.2363.1675-.4082.1675-.1777,0-.3164-.0464-.416-.1401-.1016-.0938-.1504-.2114-.1504-.353,0-.0967.0195-.1772.0605-.2427.0391-.0654.0879-.1035.1445-.1147v-.0259c-.0156-.0054-.0371-.0098-.0586-.0127-.0234-.0029-.0586-.0044-.1035-.0044-.1094,0-.2168.0288-.3223.0859-.1074.0571-.2012.1299-.2832.2188-.084.0884-.1504.1885-.2031.2998-.0508.1113-.0762.2217-.0762.3301v2.6743h.7559v.4639h-2.3032v-.4639Z"/>
  <path d="M14.7073,10.738c-.3379,0-.6367-.0576-.8975-.1719-.2607-.1152-.4795-.2754-.6572-.4814s-.3125-.4521-.4043-.7388-.1367-.6016-.1367-.9453c0-.3667.0537-.6943.1631-.9839.1084-.2891.2607-.5337.4551-.7344s.4248-.3535.6914-.46c.2666-.106.5576-.1587.8721-.1587.4932,0,.8779.103,1.1562.3091.2773.2065.416.4697.416.7905,0,.2007-.0547.3564-.1631.4683s-.2549.1675-.4385.1675c-.1885,0-.332-.0527-.4297-.1587-.0967-.106-.1455-.2393-.1455-.3994,0-.1318.0342-.2466.1035-.3438.0684-.0977.1572-.1689.2656-.2148v-.043c-.0684-.0288-.1543-.0562-.2578-.0815-.1025-.0259-.2314-.0391-.3867-.0391-.1885,0-.3604.0347-.5146.1035-.1553.0684-.2871.1646-.3955.2876-.1094.123-.1934.2705-.2539.4424-.0596.1719-.0898.3638-.0898.5757v.7476c0,.4297.1055.769.3174,1.0186.2119.249.502.373.8682.373.3438,0,.6113-.0742.8037-.2227.1914-.1494.3389-.3325.4424-.5503l.3691.2236c-.0518.1489-.126.2944-.2236.438s-.2178.2734-.3604.3906c-.1436.1182-.3125.2119-.5068.2842-.1953.0713-.416.1074-.6621.1074Z"/>
  <rect x=".5294" y="14.0099" width="15.8117" height="2"/>
  <rect x=".5294" y=".8607" width="15.8117" height="2"/>
</svg>