<svg xmlns="http://www.w3.org/2000/svg" viewBox="0 0 57.2768 16.8706" aria-label="MRC">
  <rect x="18.5391" width="38.7378" height="16.8706" rx="3" fill="#111110"/>

  <path fill="#fff" d="M24.7566 12.8005V4.07h2.3555l1.6582 4.5059c.0586.168.124.3838.1963.6475s.1465.5479.2227.8525.1484.6025.2168.8936.126.5479.1729.7705h-.3164c.0469-.2188.1045-.4717.1729-.7588s.1406-.584.2168-.8906.1504-.5928.2227-.8584.1357-.4844.1904-.6562l1.6406-4.5059h2.3613v8.7305h-1.5586v-4.4062c0-.1875.002-.4141.0059-.6797s.0098-.5508.0176-.8555.0156-.6123.0234-.9229.0117-.6064.0117-.8877h.1113c-.0781.3086-.1631.624-.2549.9463s-.1826.6348-.2725.9375-.1748.5811-.2549.835-.1494.4629-.208.627l-1.6113 4.4062h-1.3301l-1.6348-4.4062c-.0586-.1641-.1279-.3701-.208-.6182s-.166-.5225-.2578-.8232-.1836-.6143-.2754-.9404-.1826-.6475-.2725-.9639h.1289c.0039.2617.0098.5459.0176.8525s.0146.6143.0205.9229.0117.5986.0176.8701.0088.5049.0088.7002v4.4062h-1.5352Z"/>

  <path fill="#fff" d="M40.7351 12.8005h1.752l-1.9003-3.4813c.0559-.0227.1245-.032.1777-.0577.4609-.2227.8096-.5391 1.0459-.9492s.3545-.8926.3545-1.4473-.1172-1.042-.3516-1.4619-.5801-.7471-1.0371-.9814-1.0195-.3516-1.6875-.3516h-3.2637v8.7305h1.5645v-3.2051h1.6294l1.7163 3.2051ZM37.3894 5.3825h1.459c.3984 0 .7236.0586.9756.1758s.4385.2861.5596.5068.1816.4873.1816.7998c0 .3047-.0605.5645-.1816.7793s-.3066.3779-.5566.4893-.5723.167-.9668.167h-1.4707v-2.918Z"/>

  <path fill="#fff" d="M47.3738 12.9177c-.7656 0-1.4492-.1777-2.0508-.5332s-1.0762-.8672-1.4238-1.5352-.5215-1.4707-.5215-2.4082c0-.9414.1748-1.7471.5244-2.417s.8262-1.1826 1.4297-1.5381 1.2842-.5332 2.042-.5332c.4766 0 .9229.0674 1.3389.2021s.7871.332 1.1133.5918.5947.5771.8057.9521.3516.8008.4219 1.2773h-1.5762c-.0508-.2617-.1377-.4922-.2607-.6914s-.2764-.3682-.46-.5068-.3906-.2441-.6211-.3164-.4766-.1084-.7383-.1084c-.4766 0-.8994.1201-1.2686.3604s-.6582.5898-.8672 1.0488-.3135 1.0186-.3135 1.6787c0 .668.1055 1.2305.3164 1.6875s.501.8027.8701 1.0371.7881.3516 1.2568.3516c.2617 0 .5078-.0361.7383-.1084s.4385-.1777.624-.3164.3408-.3086.4658-.5098.2109-.4307.2578-.6885h1.582c-.0586.418-.1865.8096-.3838 1.1748s-.4561.6865-.7764.9639-.6924.4941-1.1162.6504-.8936.2344-1.4092.2344Z"/>

  <rect width="16.8706" height="16.8706" rx="3" fill="#111110"/>

  <circle cx="8.4353" cy="8.4353" r="1.9765" fill="#fff"/>
</svg>